<svg xmlns="http://www.w3.org/2000/svg" width="1024" height="1024" viewBox="0 0 1024 1024" version="1.1"><path d="M 654.250 9.750 C 690.413 9.895, 749.587 9.895, 785.750 9.750 C 821.913 9.604, 792.325 9.485, 720 9.485 C 647.675 9.485, 618.087 9.604, 654.250 9.750 M 594.250 26.728 C 596.313 26.944, 599.688 26.944, 601.750 26.728 C 603.813 26.513, 602.125 26.336, 598 26.336 C 593.875 26.336, 592.188 26.513, 594.250 26.728 M 628.250 26.742 C 631.962 26.934, 638.038 26.934, 641.750 26.742 C 645.462 26.549, 642.425 26.392, 635 26.392 C 627.575 26.392, 624.538 26.549, 628.250 26.742 M 680.195 26.746 C 686.077 26.922, 695.977 26.923, 702.195 26.747 C 708.413 26.571, 703.600 26.427, 691.500 26.426 C 679.400 26.425, 674.313 26.569, 680.195 26.746 M 757.206 26.741 C 760.895 26.932, 767.195 26.934, 771.206 26.743 C 775.218 26.553, 772.200 26.396, 764.500 26.395 C 756.800 26.393, 753.518 26.549, 757.206 26.741 M 784.750 26.723 C 786.538 26.945, 789.462 26.945, 791.250 26.723 C 793.038 26.502, 791.575 26.320, 788 26.320 C 784.425 26.320, 782.962 26.502, 784.750 26.723 M 810.308 26.748 C 817.353 26.920, 828.603 26.919, 835.308 26.747 C 842.014 26.574, 836.250 26.433, 822.500 26.434 C 808.750 26.434, 803.264 26.576, 810.308 26.748 M 560.481 155 C 560.481 209.725, 560.602 232.112, 560.750 204.750 C 560.898 177.387, 560.898 132.612, 560.750 105.250 C 560.602 77.887, 560.481 100.275, 560.481 155 M 880.409 105.500 C 880.408 114.850, 880.558 118.810, 880.743 114.299 C 880.928 109.789, 880.929 102.139, 880.745 97.299 C 880.562 92.460, 880.410 96.150, 880.409 105.500 M 880.495 543 C 880.495 773.175, 880.610 867.337, 880.750 752.250 C 880.890 637.162, 880.890 448.837, 880.750 333.750 C 880.610 218.662, 880.495 312.825, 880.495 543 M 632.728 253.722 C 634.503 253.943, 637.653 253.946, 639.728 253.730 C 641.802 253.513, 640.350 253.333, 636.500 253.328 C 632.650 253.324, 630.952 253.501, 632.728 253.722 M 445.172 271.750 C 481.292 271.895, 540.692 271.895, 577.172 271.750 C 613.652 271.604, 584.100 271.485, 511.500 271.485 C 438.900 271.485, 409.052 271.604, 445.172 271.750 M 352.481 396 C 352.481 449.625, 352.602 471.563, 352.750 444.750 C 352.898 417.938, 352.898 374.063, 352.750 347.250 C 352.602 320.438, 352.481 342.375, 352.481 396 M 671.494 649.500 C 671.494 842.550, 671.609 921.376, 671.750 824.669 C 671.891 727.962, 671.891 570.012, 671.750 473.669 C 671.609 377.326, 671.494 456.450, 671.494 649.500 M 143.489 709 C 143.489 803.325, 143.606 841.913, 143.750 794.750 C 143.894 747.588, 143.894 670.413, 143.750 623.250 C 143.606 576.088, 143.489 614.675, 143.489 709 M 898.320 551 C 898.320 554.575, 898.502 556.038, 898.723 554.250 C 898.945 552.462, 898.945 549.538, 898.723 547.750 C 898.502 545.962, 898.320 547.425, 898.320 551 M 898.310 578.500 C 898.315 581.800, 898.502 583.029, 898.725 581.232 C 898.947 579.435, 898.943 576.735, 898.715 575.232 C 898.486 573.729, 898.304 575.200, 898.310 578.500 M 898.336 641 C 898.336 645.125, 898.513 646.813, 898.728 644.750 C 898.944 642.688, 898.944 639.313, 898.728 637.250 C 898.513 635.188, 898.336 636.875, 898.336 641 M 898.385 779 C 898.385 785.875, 898.545 788.688, 898.740 785.250 C 898.936 781.813, 898.936 776.188, 898.740 772.750 C 898.545 769.313, 898.385 772.125, 898.385 779 M 898.365 840.500 C 898.368 846, 898.536 848.122, 898.738 845.216 C 898.941 842.311, 898.939 837.811, 898.734 835.216 C 898.528 832.622, 898.363 835, 898.365 840.500 M 898.328 861.500 C 898.333 865.350, 898.513 866.802, 898.730 864.728 C 898.946 862.653, 898.943 859.503, 898.722 857.728 C 898.501 855.952, 898.324 857.650, 898.328 861.500 M 143.400 902.500 C 143.401 910.750, 143.556 913.992, 143.744 909.704 C 143.932 905.417, 143.931 898.667, 143.742 894.704 C 143.552 890.742, 143.399 894.250, 143.400 902.500 M 898.405 905.500 C 898.406 914.300, 898.559 917.766, 898.745 913.203 C 898.930 908.639, 898.929 901.439, 898.742 897.203 C 898.555 892.966, 898.404 896.700, 898.405 905.500 M 898.409 952.500 C 898.408 961.850, 898.558 965.810, 898.743 961.299 C 898.928 956.789, 898.929 949.139, 898.745 944.299 C 898.562 939.460, 898.410 943.150, 898.409 952.500 M 143.355 959.500 C 143.352 964.450, 143.521 966.601, 143.731 964.280 C 143.940 961.959, 143.943 957.909, 143.736 955.280 C 143.530 952.651, 143.358 954.550, 143.355 959.500 M 210.250 1016.735 C 212.863 1016.941, 217.137 1016.941, 219.750 1016.735 C 222.363 1016.529, 220.225 1016.360, 215 1016.360 C 209.775 1016.360, 207.637 1016.529, 210.250 1016.735 M 248.250 1016.748 C 255.813 1016.917, 268.188 1016.917, 275.750 1016.748 C 283.313 1016.578, 277.125 1016.439, 262 1016.439 C 246.875 1016.439, 240.688 1016.578, 248.250 1016.748 M 308.250 1016.728 C 310.313 1016.944, 313.688 1016.944, 315.750 1016.728 C 317.813 1016.513, 316.125 1016.336, 312 1016.336 C 307.875 1016.336, 306.188 1016.513, 308.250 1016.728 M 366.750 1016.737 C 369.637 1016.939, 374.363 1016.939, 377.250 1016.737 C 380.137 1016.535, 377.775 1016.370, 372 1016.370 C 366.225 1016.370, 363.863 1016.535, 366.750 1016.737 M 395.776 1016.733 C 398.128 1016.945, 401.728 1016.942, 403.776 1016.727 C 405.824 1016.512, 403.900 1016.339, 399.500 1016.343 C 395.100 1016.346, 393.424 1016.522, 395.776 1016.733 M 434.811 1016.748 C 442.681 1016.917, 455.281 1016.917, 462.811 1016.747 C 470.340 1016.578, 463.900 1016.439, 448.500 1016.440 C 433.100 1016.440, 426.940 1016.579, 434.811 1016.748 M 484.206 1016.741 C 487.895 1016.932, 494.195 1016.934, 498.206 1016.743 C 502.218 1016.553, 499.200 1016.396, 491.500 1016.395 C 483.800 1016.393, 480.518 1016.549, 484.206 1016.741 M 552.250 1016.750 C 575.763 1016.899, 614.238 1016.899, 637.750 1016.750 C 661.263 1016.600, 642.025 1016.478, 595 1016.478 C 547.975 1016.478, 528.738 1016.600, 552.250 1016.750 M 753.323 1016.750 C 771.375 1016.902, 800.625 1016.902, 818.323 1016.749 C 836.020 1016.596, 821.250 1016.471, 785.500 1016.472 C 749.750 1016.472, 735.270 1016.597, 753.323 1016.750" stroke="none" fill="#adb0ad" fill-rule="evenodd"/><path d="M 579 11.884 C 571.124 14.427, 566.716 16.909, 560.065 22.543 C 553.596 28.024, 549.131 34.576, 545.738 43.568 C 543.500 49.500, 543.500 49.500, 543.219 151.750 C 542.937 254, 542.937 254, 461.219 254.074 C 416.273 254.115, 378.375 254.348, 377 254.592 C 366.643 256.427, 356.244 261.934, 348.647 269.608 C 343.167 275.145, 337.215 287.456, 336.019 295.730 C 335.435 299.763, 335.032 341.010, 335.020 397.750 C 335 493, 335 493, 252.250 493.036 C 155.451 493.077, 160.992 492.533, 145.450 503.534 C 137.819 508.935, 131.044 518.496, 127.405 529 C 125.554 534.344, 125.500 540.741, 125.500 755 C 125.500 975.500, 125.500 975.500, 128.154 981.686 C 134.284 995.973, 144.474 1006.356, 158.245 1012.345 C 165.500 1015.500, 165.500 1015.500, 511 1015.500 C 856.500 1015.500, 856.500 1015.500, 863 1013.080 C 879.683 1006.869, 891.266 994.739, 896.495 978 C 898.107 972.842, 898.237 944.089, 898.586 515 C 898.911 115.705, 898.772 56.706, 897.492 51.258 C 892.958 31.945, 880.444 18.104, 862.310 12.345 C 854.924 10, 854.924 10, 719.712 10.054 C 592.997 10.104, 584.154 10.219, 579 11.884 M 587.326 27.119 C 579.430 28.539, 569.860 35.093, 565.426 42.118 C 559.921 50.838, 560 49.184, 560 155.710 C 560 254, 560 254, 600.750 254.006 C 623.163 254.009, 644.172 254.449, 647.438 254.984 C 650.703 255.519, 656.707 257.539, 660.780 259.473 C 674.460 265.969, 685.899 281.319, 688.025 296.034 C 688.590 299.942, 688.968 440.468, 688.980 651.272 C 689 1000.045, 689 1000.045, 771.750 999.772 C 854.500 999.500, 854.500 999.500, 860.175 996.840 C 868.138 993.107, 874.179 987.186, 877.615 979.747 C 880.500 973.500, 880.500 973.500, 880.500 512.500 C 880.500 51.500, 880.500 51.500, 877.837 46.454 C 872.277 35.921, 862.484 28.891, 850.854 27.085 C 843.388 25.925, 593.785 25.958, 587.326 27.119 M 375.113 273.059 C 366.080 276.266, 359.760 281.970, 355.257 290.982 C 352.500 296.500, 352.500 296.500, 352.231 394.750 C 351.962 493, 351.962 493, 394.731 493.006 C 418.254 493.009, 440.200 493.450, 443.500 493.986 C 457.217 496.215, 473.537 508.067, 479.321 520 C 485.935 533.645, 485.385 512.306, 485.712 768 C 486.008 999.500, 486.008 999.500, 579.004 999.755 C 672 1000.010, 672 1000.010, 672 650.162 C 672 304.403, 671.977 300.246, 670.025 294.573 C 666.270 283.658, 659.350 276.823, 648.275 273.093 C 642.092 271.010, 641.446 271, 511.282 271.073 C 385.140 271.144, 380.309 271.214, 375.113 273.059 M 165.137 512.234 C 157.973 515.066, 149.784 522.703, 146.294 529.810 C 143.500 535.500, 143.500 535.500, 143.500 755 C 143.500 974.500, 143.500 974.500, 146.351 980.215 C 149.675 986.881, 155.642 992.728, 163.160 996.687 C 168.500 999.500, 168.500 999.500, 318.760 999.763 C 469.021 1000.026, 469.021 1000.026, 468.760 767.763 C 468.500 535.500, 468.500 535.500, 466.156 530.784 C 462.475 523.379, 456.852 517.732, 449.387 513.942 C 442.605 510.500, 442.605 510.500, 306.553 510.307 C 170.500 510.115, 170.500 510.115, 165.137 512.234" stroke="none" fill="#fbfbfb" fill-rule="evenodd"/></svg>